HIERARCHY
ROOT Hips
{
	OFFSET 0.053599 88.859886 3.107447
	CHANNELS 6 Xposition Yposition Zposition Zrotation Yrotation Xrotation 
	JOINT Spine
	{
		OFFSET -0.000000 8.814246 -2.080107
		CHANNELS 3 Zrotation Yrotation Xrotation
		JOINT Spine1
		{
			OFFSET 0.000000 8.844141 0.000000
			CHANNELS 3 Zrotation Yrotation Xrotation
			JOINT Spine2
			{
				OFFSET -0.000000 11.682268 0.000000
				CHANNELS 3 Zrotation Yrotation Xrotation
				JOINT Spine3
				{
					OFFSET 0.000000 11.746700 0.000000
					CHANNELS 3 Zrotation Yrotation Xrotation
					JOINT Neck
					{
						OFFSET -0.000000 17.658264 -0.000000
						CHANNELS 3 Zrotation Yrotation Xrotation
						JOINT Neck1
						{
							OFFSET -0.000000 5.101515 -0.000000
							CHANNELS 3 Zrotation Yrotation Xrotation
							JOINT Head
							{
								OFFSET 0.000000 5.101515 0.000000
								CHANNELS 3 Zrotation Yrotation Xrotation
								JOINT HeadEnd
								{
									OFFSET 0.000000 11.655085 0.000000
									CHANNELS 3 Zrotation Yrotation Xrotation
									End Site
									{
										OFFSET 0.000000 0.000000 0.000000
									}
								}
							}
						}
					}
					JOINT RightShoulder
					{
						OFFSET -2.625389 11.175210 0.000000
						CHANNELS 3 Zrotation Yrotation Xrotation
						JOINT RightArm
						{
							OFFSET -0.000000 10.434715 -0.000000
							CHANNELS 3 Zrotation Yrotation Xrotation
							JOINT RightForeArm
							{
								OFFSET -0.000000 29.628420 0.000000
								CHANNELS 3 Zrotation Yrotation Xrotation
								JOINT RightHand
								{
									OFFSET -0.000000 22.857611 0.000000
									CHANNELS 3 Zrotation Yrotation Xrotation
									JOINT RightHandThumb1
									{
										OFFSET -2.867323 3.959563 2.944291
										CHANNELS 3 Zrotation Yrotation Xrotation
										JOINT RightHandThumb2
										{
											OFFSET 0.000000 3.350399 0.000000
											CHANNELS 3 Zrotation Yrotation Xrotation
											JOINT RightHandThumb3
											{
												OFFSET 0.000000 3.756509 -0.000000
												CHANNELS 3 Zrotation Yrotation Xrotation
												JOINT RightHandThumb4
												{
													OFFSET 0.000000 3.147345 0.000000
													CHANNELS 3 Zrotation Yrotation Xrotation
													End Site
													{
														OFFSET 0.000000 0.000000 0.000000
													}
												}
											}
										}
									}
									JOINT RightHandIndex1
									{
										OFFSET -0.086752 10.030893 2.345280
										CHANNELS 3 Zrotation Yrotation Xrotation
										JOINT RightHandIndex2
										{
											OFFSET -0.000000 4.061090 0.000000
											CHANNELS 3 Zrotation Yrotation Xrotation
											JOINT RightHandIndex3
											{
												OFFSET -0.000000 3.248873 0.000000
												CHANNELS 3 Zrotation Yrotation Xrotation
												JOINT RightHandIndex4
												{
													OFFSET 0.000000 2.639709 -0.000000
													CHANNELS 3 Zrotation Yrotation Xrotation
													End Site
													{
														OFFSET 0.000000 0.000000 0.000000
													}
												}
											}
										}
									}
									JOINT RightHandMiddle1
									{
										OFFSET 0.104102 9.502952 0.006768
										CHANNELS 3 Zrotation Yrotation Xrotation
										JOINT RightHandMiddle2
										{
											OFFSET 0.000000 4.568727 0.000000
											CHANNELS 3 Zrotation Yrotation Xrotation
											JOINT RightHandMiddle3
											{
												OFFSET 0.000000 3.654981 -0.000000
												CHANNELS 3 Zrotation Yrotation Xrotation
												JOINT RightHandMiddle4
												{
													OFFSET -0.000000 2.741236 -0.000000
													CHANNELS 3 Zrotation Yrotation Xrotation
													End Site
													{
														OFFSET 0.000000 0.000000 0.000000
													}
												}
											}
										}
									}
									JOINT RightHandRing1
									{
										OFFSET 0.086752 8.921708 -2.267442
										CHANNELS 3 Zrotation Yrotation Xrotation
										JOINT RightHandRing2
										{
											OFFSET -0.000000 4.061090 0.000000
											CHANNELS 3 Zrotation Yrotation Xrotation
											JOINT RightHandRing3
											{
												OFFSET 0.000000 3.654981 -0.000000
												CHANNELS 3 Zrotation Yrotation Xrotation
												JOINT RightHandRing4
												{
													OFFSET 0.000000 2.741236 -0.000000
													CHANNELS 3 Zrotation Yrotation Xrotation
													End Site
													{
														OFFSET 0.000000 0.000000 0.000000
													}
												}
											}
										}
									}
									JOINT RightHandPinky1
									{
										OFFSET -0.173504 7.976997 -4.467199
										CHANNELS 3 Zrotation Yrotation Xrotation
										JOINT RightHandPinky2
										{
											OFFSET 0.000000 3.350399 -0.000000
											CHANNELS 3 Zrotation Yrotation Xrotation
											JOINT RightHandPinky3
											{
												OFFSET -0.000000 2.842763 0.000000
												CHANNELS 3 Zrotation Yrotation Xrotation
												JOINT RightHandPinky4
												{
													OFFSET -0.000000 2.639709 0.000000
													CHANNELS 3 Zrotation Yrotation Xrotation
													End Site
													{
														OFFSET 0.000000 0.000000 0.000000
													}
												}
											}
										}
									}
									JOINT RightForeArmEnd
									{
										OFFSET 0.000000 0.000000 0.000000
										CHANNELS 3 Zrotation Yrotation Xrotation
										End Site
										{
											OFFSET 0.000000 0.000000 0.000000
										}
									}
								}
								JOINT RightArmEnd
								{
									OFFSET 0.000000 0.000000 0.000000
									CHANNELS 3 Zrotation Yrotation Xrotation
									End Site
									{
										OFFSET 0.000000 0.000000 0.000000
									}
								}
							}
						}
					}
					JOINT LeftShoulder
					{
						OFFSET 2.625389 11.175210 0.000000
						CHANNELS 3 Zrotation Yrotation Xrotation
						JOINT LeftArm
						{
							OFFSET 0.000000 10.813635 -0.000000
							CHANNELS 3 Zrotation Yrotation Xrotation
							JOINT LeftForeArm
							{
								OFFSET 0.000000 28.724781 0.000000
								CHANNELS 3 Zrotation Yrotation Xrotation
								JOINT LeftHand
								{
									OFFSET 0.644384 25.716167 -0.328871
									CHANNELS 3 Zrotation Yrotation Xrotation
									JOINT LeftHandThumb1
									{
										OFFSET 2.867323 3.959563 2.944291
										CHANNELS 3 Zrotation Yrotation Xrotation
										JOINT LeftHandThumb2
										{
											OFFSET 0.000000 3.350399 0.000000
											CHANNELS 3 Zrotation Yrotation Xrotation
											JOINT LeftHandThumb3
											{
												OFFSET -0.000000 3.756509 0.000000
												CHANNELS 3 Zrotation Yrotation Xrotation
												JOINT LeftHandThumb4
												{
													OFFSET -0.000000 3.100000 0.000000
													CHANNELS 3 Zrotation Yrotation Xrotation
													End Site
													{
														OFFSET 0.000000 0.000000 0.000000
													}
												}
											}
										}
									}
									JOINT LeftHandIndex1
									{
										OFFSET 0.086752 10.030893 2.345280
										CHANNELS 3 Zrotation Yrotation Xrotation
										JOINT LeftHandIndex2
										{
											OFFSET -0.000000 4.061090 -0.000000
											CHANNELS 3 Zrotation Yrotation Xrotation
											JOINT LeftHandIndex3
											{
												OFFSET 0.000000 3.248873 -0.000000
												CHANNELS 3 Zrotation Yrotation Xrotation
												JOINT LeftHandIndex4
												{
													OFFSET 0.000000 2.639709 -0.000000
													CHANNELS 3 Zrotation Yrotation Xrotation
													End Site
													{
														OFFSET 0.000000 0.000000 0.000000
													}
												}
											}
										}
									}
									JOINT LeftHandMiddle1
									{
										OFFSET -0.104102 9.502952 0.006768
										CHANNELS 3 Zrotation Yrotation Xrotation
										JOINT LeftHandMiddle2
										{
											OFFSET -0.000000 4.568727 -0.000000
											CHANNELS 3 Zrotation Yrotation Xrotation
											JOINT LeftHandMiddle3
											{
												OFFSET 0.000000 3.654981 0.000000
												CHANNELS 3 Zrotation Yrotation Xrotation
												JOINT LeftHandMiddle4
												{
													OFFSET 0.000000 2.741236 -0.000000
													CHANNELS 3 Zrotation Yrotation Xrotation
													End Site
													{
														OFFSET 0.000000 0.000000 0.000000
													}
												}
											}
										}
									}
									JOINT LeftHandRing1
									{
										OFFSET -0.086752 8.921708 -2.267442
										CHANNELS 3 Zrotation Yrotation Xrotation
										JOINT LeftHandRing2
										{
											OFFSET 0.000000 4.061090 0.000000
											CHANNELS 3 Zrotation Yrotation Xrotation
											JOINT LeftHandRing3
											{
												OFFSET 0.000000 3.654981 0.000000
												CHANNELS 3 Zrotation Yrotation Xrotation
												JOINT LeftHandRing4
												{
													OFFSET 0.000000 2.741236 0.000000
													CHANNELS 3 Zrotation Yrotation Xrotation
													End Site
													{
														OFFSET 0.000000 0.000000 0.000000
													}
												}
											}
										}
									}
									JOINT LeftHandPinky1
									{
										OFFSET 0.173504 7.976997 -4.467199
										CHANNELS 3 Zrotation Yrotation Xrotation
										JOINT LeftHandPinky2
										{
											OFFSET -0.000000 3.350399 -0.000000
											CHANNELS 3 Zrotation Yrotation Xrotation
											JOINT LeftHandPinky3
											{
												OFFSET 0.000000 2.842763 0.000000
												CHANNELS 3 Zrotation Yrotation Xrotation
												JOINT LeftHandPinky4
												{
													OFFSET -0.000000 2.639709 -0.000000
													CHANNELS 3 Zrotation Yrotation Xrotation
													End Site
													{
														OFFSET 0.000000 0.000000 0.000000
													}
												}
											}
										}
									}
									JOINT LeftForeArmEnd
									{
										OFFSET 0.000000 0.000000 0.000000
										CHANNELS 3 Zrotation Yrotation Xrotation
										End Site
										{
											OFFSET 0.000000 0.000000 0.000000
										}
									}
								}
								JOINT LeftArmEnd
								{
									OFFSET 0.000000 0.000000 0.000000
									CHANNELS 3 Zrotation Yrotation Xrotation
									End Site
									{
										OFFSET 0.000000 0.000000 0.000000
									}
								}
							}
						}
					}
				}
			}
		}
	}
	JOINT RightUpLeg
	{
		OFFSET -11.289943 0.000000 0.000000
		CHANNELS 3 Zrotation Yrotation Xrotation
		JOINT RightLeg
		{
			OFFSET 0.000000 -38.200325 0.000000
			CHANNELS 3 Zrotation Yrotation Xrotation
			JOINT RightFoot
			{
				OFFSET -0.000000 -39.900856 -0.000000
				CHANNELS 3 Zrotation Yrotation Xrotation
				JOINT RightToeBase
				{
					OFFSET 0.000000 0.000000 15.261641
					CHANNELS 3 Zrotation Yrotation Xrotation
					JOINT RightToeBaseEnd
					{
						OFFSET 0.000000 0.000000 7.370709
						CHANNELS 3 Zrotation Yrotation Xrotation
						End Site
						{
							OFFSET 0.000000 0.000000 0.000000
						}
					}
				}
				JOINT RightLegEnd
				{
					OFFSET 0.000000 0.000000 0.000000
					CHANNELS 3 Zrotation Yrotation Xrotation
					End Site
					{
						OFFSET 0.000000 0.000000 0.000000
					}
				}
			}
			JOINT RightUpLegEnd
			{
				OFFSET 0.000000 0.000000 0.000000
				CHANNELS 3 Zrotation Yrotation Xrotation
				End Site
				{
					OFFSET 0.000000 0.000000 0.000000
				}
			}
		}
	}
	JOINT LeftUpLeg
	{
		OFFSET 11.315661 -0.000000 0.000000
		CHANNELS 3 Zrotation Yrotation Xrotation
		JOINT LeftLeg
		{
			OFFSET -0.000000 -38.200325 -0.000000
			CHANNELS 3 Zrotation Yrotation Xrotation
			JOINT LeftFoot
			{
				OFFSET 0.000000 -39.900856 -0.000000
				CHANNELS 3 Zrotation Yrotation Xrotation
				JOINT LeftToeBase
				{
					OFFSET -0.000000 -0.000000 15.261641
					CHANNELS 3 Zrotation Yrotation Xrotation
					JOINT LeftToeBaseEnd
					{
						OFFSET 0.000000 -0.000000 7.539996
						CHANNELS 3 Zrotation Yrotation Xrotation
						End Site
						{
							OFFSET 0.000000 0.000000 0.000000
						}
					}
				}
				JOINT LeftLegEnd
				{
					OFFSET 0.000000 0.000000 0.000000
					CHANNELS 3 Zrotation Yrotation Xrotation
					End Site
					{
						OFFSET 0.000000 0.000000 0.000000
					}
				}
			}
			JOINT LeftUpLegEnd
			{
				OFFSET 0.000000 0.000000 0.000000
				CHANNELS 3 Zrotation Yrotation Xrotation
				End Site
				{
					OFFSET 0.000000 0.000000 0.000000
				}
			}
		}
	}
}
MOTION
Frames: 5
Frame Time: 0.016667
0.053599 88.859886 3.107447 0.490481 0.055862 -6.497332 0.023754 -0.000539 5.886370 -1.012250 0.067046 0.861970 0.478071 -2.416792 3.829567 0.155030 -0.780500 1.929224 2.330515 0.848112 5.016849 0.371683 2.117863 -3.221864 -0.714533 -0.852149 -18.222401 0.000000 0.000000 0.000000 92.418694 -0.394880 9.707912 65.456573 -33.431271 5.091406 -0.130291 12.440493 22.353239 6.882370 13.743960 -6.458578 19.861429 30.097643 62.040974 -8.462701 -12.164348 -20.450144 -6.325801 -8.139122 -14.332924 0.000000 0.000000 0.000000 12.621688 -10.712396 0.231899 8.905269 0.376633 1.323778 8.902945 -0.111869 1.243825 0.000000 0.000000 0.000000 11.194713 -5.446730 -1.239449 7.889823 0.455857 0.481039 7.889222 -0.037052 0.412494 0.000000 0.000000 0.000000 10.912717 2.564455 -1.535874 7.825817 -0.947299 -0.611652 7.824722 0.070320 -0.477096 0.000000 0.000000 0.000000 9.631022 11.185607 -2.805182 7.161172 -1.900893 -1.652070 7.157181 0.085565 -1.400512 0.000000 0.000000 0.000000 0.000000 0.000000 0.000000 0.000000 0.000000 0.000000 -90.370071 0.051974 5.208683 -71.842018 19.306828 -7.574249 -0.664994 -8.642401 40.885647 -0.139946 -25.486511 -15.477552 -20.250540 -29.996990 61.691063 8.807010 12.918287 -21.553112 6.618044 8.635277 -15.110494 0.000000 0.000000 0.000000 -16.168392 -5.636370 -1.918335 -11.569428 0.324957 -1.715407 -11.569072 -0.164917 -1.615128 0.000000 0.000000 0.000000 -15.643335 -0.758781 -1.694552 -11.169063 0.440303 -0.678956 -11.168735 -0.058746 -0.582722 0.000000 0.000000 0.000000 -18.003109 7.607869 -1.025503 -12.703986 -0.874371 0.992852 -12.702737 0.099213 0.772902 0.000000 0.000000 0.000000 -18.852142 16.262062 -0.245862 -13.102126 -1.657223 2.980032 -13.096694 0.281077 2.526406 0.000000 0.000000 0.000000 0.000000 0.000000 0.000000 0.000000 0.000000 0.000000 -1.045058 -10.518975 11.869204 -0.078405 -0.635030 3.758801 -2.197730 -7.901679 18.681496 -0.890004 0.828132 -18.870453 0.000000 0.000000 0.000000 0.000000 0.000000 0.000000 0.000000 0.000000 0.000000 -1.784023 -6.543907 7.474547 0.053202 0.398207 7.545935 3.843466 -1.785134 17.966772 0.194973 -0.390531 -20.817129 0.000000 0.000000 0.000000 0.000000 0.000000 0.000000 0.000000 0.000000 0.000000 
0.112852 88.920898 2.917230 -0.276107 -0.307464 -7.344746 1.302150 -0.182084 6.640768 -0.957990 0.117757 2.703565 0.744830 -1.609445 1.543900 -0.900353 -0.170484 3.114924 1.265939 2.297595 3.170944 0.363447 2.954026 -3.777315 -1.056613 -0.611010 -18.464518 0.000000 0.000000 0.000000 92.946007 -0.455845 9.600650 64.951920 -32.183510 4.100436 -0.118449 13.088214 23.170677 6.808035 13.068849 -6.954257 19.868288 30.097855 62.086601 -8.419874 -12.065104 -20.410414 -6.284396 -8.085119 -14.257483 0.000000 0.000000 0.000000 11.971938 -10.741027 -0.318878 8.990185 0.334241 1.325278 8.777719 -0.106496 1.260847 0.000000 0.000000 0.000000 10.814569 -5.345659 -1.110400 7.645986 0.422469 0.516479 8.015409 -0.052486 0.441874 0.000000 0.000000 0.000000 10.257448 2.585459 -0.842771 7.442338 -0.889320 -0.851036 7.486028 0.067171 -0.625230 0.000000 0.000000 0.000000 9.551848 11.058954 -1.776662 7.128085 -1.649150 -2.428514 6.714661 0.277523 -2.050452 0.000000 0.000000 0.000000 0.000000 0.000000 0.000000 0.000000 0.000000 0.000000 -89.893959 0.135049 5.991540 -71.719757 19.532833 -6.588531 -1.228586 -9.100510 40.467522 2.009034 -23.167957 -16.013577 -20.238047 -29.967583 61.616047 8.880819 12.931059 -21.659443 6.647065 8.655225 -15.136902 0.000000 0.000000 0.000000 -17.199753 -5.487311 -0.092182 -10.977802 0.293281 -1.396000 -11.094830 -0.168893 -1.287331 0.000000 0.000000 0.000000 -16.540319 -0.504653 -0.886691 -10.859545 0.408061 -0.590624 -10.783828 -0.066567 -0.474406 0.000000 0.000000 0.000000 -18.696024 7.526169 -0.740788 -12.358653 -0.868541 0.849340 -12.336678 0.083882 0.659836 0.000000 0.000000 0.000000 -19.938749 15.929277 -1.172833 -12.923246 -1.549052 2.649064 -12.777481 0.344335 2.252340 0.000000 0.000000 0.000000 0.000000 0.000000 0.000000 0.000000 0.000000 0.000000 0.123393 -9.175006 11.021382 -0.048692 -0.639719 6.160261 -2.883636 -9.006713 17.709238 -0.800357 0.757568 -19.019680 0.000000 0.000000 0.000000 0.000000 0.000000 0.000000 0.000000 0.000000 0.000000 -1.539438 -6.363036 7.203507 0.057545 0.368799 8.540282 3.717082 -0.525760 16.953934 0.390724 -0.474154 -20.495531 0.000000 0.000000 0.000000 0.000000 0.000000 0.000000 0.000000 0.000000 0.000000 
0.120275 88.906792 2.909109 -0.299644 -0.372269 -7.424267 1.302564 -0.168317 6.678235 -0.892129 0.104149 2.688252 0.750489 -1.580470 1.630981 -0.886343 -0.144469 3.169423 1.228745 2.202511 3.119127 0.355748 2.873435 -3.757983 -1.071789 -0.648916 -18.438847 0.000000 0.000000 0.000000 92.815468 -0.459671 9.528739 64.915070 -32.465046 4.156168 -0.064372 13.139637 23.209995 6.631788 12.596095 -6.968643 19.850924 30.101789 62.091293 -8.415595 -12.045646 -20.383749 -6.281738 -8.068137 -14.238020 0.000000 0.000000 0.000000 11.960959 -10.737894 -0.377430 9.035745 0.339145 1.301101 8.840157 -0.099569 1.237237 0.000000 0.000000 0.000000 10.839656 -5.338548 -1.116233 7.704579 0.422966 0.506783 8.075414 -0.050834 0.434559 0.000000 0.000000 0.000000 10.286018 2.571481 -0.805413 7.536163 -0.890061 -0.840503 7.581492 0.064150 -0.614445 0.000000 0.000000 0.000000 9.518891 11.038057 -1.658480 7.139785 -1.653259 -2.412713 6.748266 0.270551 -2.027654 0.000000 0.000000 0.000000 0.000000 0.000000 0.000000 0.000000 0.000000 0.000000 -89.839211 0.142310 6.011362 -71.908058 19.662579 -6.629930 -1.228338 -9.156679 40.563927 2.226593 -22.815773 -16.019447 -20.228168 -29.973795 61.628143 8.861267 12.908607 -21.626493 6.634073 8.636804 -15.107904 0.000000 0.000000 0.000000 -17.106123 -5.524080 -0.170670 -11.057490 0.294372 -1.380765 -11.147902 -0.165430 -1.275968 0.000000 0.000000 0.000000 -16.453987 -0.527876 -0.941312 -10.938211 0.407962 -0.588833 -10.863153 -0.066989 -0.473537 0.000000 0.000000 0.000000 -18.683405 7.518297 -0.809816 -12.443703 -0.867880 0.849821 -12.405292 0.083698 0.659785 0.000000 0.000000 0.000000 -19.945683 15.921874 -1.253390 -12.956658 -1.550344 2.634564 -12.785561 0.341850 2.253044 0.000000 0.000000 0.000000 0.000000 0.000000 0.000000 0.000000 0.000000 0.000000 0.135014 -9.101800 11.133211 -0.048943 -0.641999 6.072092 -2.831230 -9.027563 17.750931 -0.806873 0.757819 -19.020966 0.000000 0.000000 0.000000 0.000000 0.000000 0.000000 0.000000 0.000000 0.000000 -1.507171 -6.305238 7.197890 0.056064 0.357314 8.637685 3.715196 -0.503549 16.945244 0.371186 -0.476950 -20.520943 0.000000 0.000000 0.000000 0.000000 0.000000 0.000000 0.000000 0.000000 0.000000 
0.127007 88.898903 2.919444 -0.313937 -0.430268 -7.531911 1.310497 -0.159723 6.691899 -0.873117 0.104816 2.684431 0.767904 -1.562443 1.697638 -0.882321 -0.111877 3.248412 1.193329 2.143045 3.119101 0.368206 2.819772 -3.705163 -1.068502 -0.665838 -18.436090 0.000000 0.000000 0.000000 92.712898 -0.465621 9.476942 64.937935 -32.415363 4.079073 -0.041069 13.185541 23.343658 6.683163 12.152061 -6.980999 19.857347 30.102745 62.082817 -8.419878 -12.070463 -20.413349 -6.287756 -8.078806 -14.257965 0.000000 0.000000 0.000000 12.028351 -10.763770 -0.405077 9.148668 0.345792 1.272718 8.963423 -0.092581 1.210673 0.000000 0.000000 0.000000 10.923590 -5.349957 -1.108006 7.819552 0.425466 0.495142 8.185448 -0.048261 0.425201 0.000000 0.000000 0.000000 10.349713 2.567585 -0.744049 7.653758 -0.892584 -0.829324 7.698059 0.061557 -0.604170 0.000000 0.000000 0.000000 9.520193 11.046586 -1.515752 7.187951 -1.658327 -2.400255 6.812237 0.266258 -2.015597 0.000000 0.000000 0.000000 0.000000 0.000000 0.000000 0.000000 0.000000 0.000000 -89.807228 0.153062 6.009785 -72.046677 19.701792 -6.646693 -1.195505 -9.198210 40.605324 2.273848 -22.475559 -15.905370 -20.238014 -29.975336 61.625229 8.858432 12.909934 -21.644093 6.634405 8.641095 -15.112802 0.000000 0.000000 0.000000 -17.124529 -5.547174 -0.174339 -11.110359 0.297359 -1.360458 -11.177387 -0.161760 -1.259502 0.000000 0.000000 0.000000 -16.463787 -0.536468 -0.934272 -10.991408 0.408945 -0.582222 -10.924861 -0.066589 -0.467909 0.000000 0.000000 0.000000 -18.753868 7.522907 -0.782251 -12.500641 -0.868940 0.848382 -12.461136 0.082690 0.657213 0.000000 0.000000 0.000000 -20.056702 15.920050 -1.237867 -12.997303 -1.551697 2.632670 -12.803296 0.343111 2.259158 0.000000 0.000000 0.000000 0.000000 0.000000 0.000000 0.000000 0.000000 0.000000 0.128825 -9.024475 11.267691 -0.048942 -0.640040 6.055081 -2.783742 -9.043288 17.780106 -0.810207 0.759311 -19.030079 0.000000 0.000000 0.000000 0.000000 0.000000 0.000000 0.000000 0.000000 0.000000 -1.490034 -6.272380 7.215660 0.055474 0.354104 8.756421 3.714789 -0.486692 16.920799 0.361930 -0.481080 -20.531288 0.000000 0.000000 0.000000 0.000000 0.000000 0.000000 0.000000 0.000000 0.000000 
0.136032 88.893280 2.932430 -0.330026 -0.479940 -7.641324 1.325979 -0.154015 6.701671 -0.864245 0.106801 2.680154 0.781472 -1.532706 1.766845 -0.879751 -0.082156 3.315758 1.126444 2.132844 3.174040 0.384691 2.794642 -3.634714 -1.057336 -0.675544 -18.464430 0.000000 0.000000 0.000000 92.653358 -0.463037 9.454612 65.036667 -32.257286 3.938827 -0.026547 13.288166 23.454977 6.745582 11.794398 -6.953731 19.870224 30.100700 62.066074 -8.432427 -12.108519 -20.460621 -6.300247 -8.100242 -14.288154 0.000000 0.000000 0.000000 12.158445 -10.795071 -0.409909 9.254303 0.357015 1.233579 9.077991 -0.080834 1.176327 0.000000 0.000000 0.000000 11.068950 -5.372402 -1.083044 7.927347 0.430537 0.478785 8.285692 -0.043756 0.412177 0.000000 0.000000 0.000000 10.484458 2.550418 -0.656597 7.764120 -0.898661 -0.809329 7.804539 0.056390 -0.587941 0.000000 0.000000 0.000000 9.590337 11.043425 -1.353504 7.247938 -1.674209 -2.357319 6.880089 0.252739 -1.980254 0.000000 0.000000 0.000000 0.000000 0.000000 0.000000 0.000000 0.000000 0.000000 -89.798332 0.152970 6.005960 -72.084839 19.730879 -6.611015 -1.167356 -9.223584 40.660965 2.159347 -22.175062 -15.778588 -20.239309 -29.975458 61.624866 8.862966 12.897561 -21.647226 6.634056 8.634104 -15.109051 0.000000 0.000000 0.000000 -17.147507 -5.556404 -0.153910 -11.111151 0.309406 -1.312122 -11.162000 -0.148995 -1.217531 0.000000 0.000000 0.000000 -16.484024 -0.538116 -0.902573 -10.989961 0.413984 -0.563245 -10.936278 -0.062554 -0.452150 0.000000 0.000000 0.000000 -18.814838 7.520526 -0.720592 -12.513598 -0.875763 0.830228 -12.468070 0.077177 0.642645 0.000000 0.000000 0.000000 -20.165546 15.904050 -1.192540 -13.005348 -1.569499 2.582318 -12.791534 0.328946 2.224207 0.000000 0.000000 0.000000 0.000000 0.000000 0.000000 0.000000 0.000000 0.000000 0.117011 -8.948477 11.396431 -0.049038 -0.637009 6.065269 -2.745281 -9.031382 17.803003 -0.810116 0.758004 -19.039967 0.000000 0.000000 0.000000 0.000000 0.000000 0.000000 0.000000 0.000000 0.000000 -1.480190 -6.264030 7.241908 0.054949 0.349549 8.866213 3.712594 -0.455697 16.909321 0.356351 -0.483079 -20.541662 0.000000 0.000000 0.000000 0.000000 0.000000 0.000000 0.000000 0.000000 0.000000 
